<svg xmlns="http://www.w3.org/2000/svg" viewBox="0 0 360 124" role="img" aria-label="Franklin Templeton Investments">
  <!-- Medallón con retrato estilizado (versión blanca para fondo oscuro) -->
  <g fill="none" stroke="#FFFFFF">
    <ellipse cx="180" cy="36" rx="27" ry="31" stroke-width="2.4"/>
    <ellipse cx="180" cy="36" rx="22.5" ry="26.5" stroke-width="1.1"/>
    <!-- busto: cabello, rostro y hombros (estilo grabado simplificado) -->
    <path d="M167 26 q2 -12 13 -12 q11 0 13 12" stroke-width="1.6"/>
    <path d="M166 27 q-3 12 3 20 M194 27 q3 12 -3 20" stroke-width="1.3"/>
    <circle cx="180" cy="30" r="8.2" stroke-width="1.5"/>
    <path d="M170 52 q10 -8 20 0" stroke-width="1.6"/>
    <path d="M174 44 q6 5 12 0" stroke-width="1.1"/>
    <!-- laureles -->
    <path d="M136 56 q8 -7 17 -6 M139 61 q9 -4 15 -2 M133 51 q7 -8 16 -8" stroke-width="1.4" stroke-linecap="round"/>
    <path d="M224 56 q-8 -7 -17 -6 M221 61 q-9 -4 -15 -2 M227 51 q-7 -8 -16 -8" stroke-width="1.4" stroke-linecap="round"/>
    <!-- base del medallón -->
    <path d="M118 66 H242" stroke-width="2.2"/>
  </g>
  <text x="180" y="94" text-anchor="middle" font-family="Georgia, 'Times New Roman', serif" font-weight="700" font-size="24" letter-spacing="2.5" fill="#FFFFFF">FRANKLIN TEMPLETON</text>
  <text x="180" y="117" text-anchor="middle" font-family="Georgia, 'Times New Roman', serif" font-weight="700" font-size="18" letter-spacing="6" fill="#FFFFFF">INVESTMENTS</text>
</svg>
